<svg id="Capa_1" enable-background="new 0 0 512.027 512.027" height="512" viewBox="0 0 512.027 512.027" width="512" xmlns="http://www.w3.org/2000/svg"><g><path d="m76.042 222.407-37.578 33.557 37.561 33.541c3.258 2.918 80.916 71.459 179.989 71.459s176.731-68.541 179.972-71.443l37.578-33.557-37.561-33.541c-3.258-2.918-80.916-71.459-179.989-71.459s-176.732 68.54-179.972 71.443zm254.971 33.556c0 41.355-33.645 75-75 75s-75-33.645-75-75 33.645-75 75-75 75 33.645 75 75zm-247.509 0c11.705-10.427 27.363-25.813 60.891-44.044 6.519-3.544 13.95-7.26 22.139-10.837-9.837 15.98-15.521 34.779-15.521 54.881s5.683 38.901 15.521 54.881c-8.189-3.577-15.621-7.292-22.139-10.837-32.257-17.539-47.836-32.413-60.891-44.044zm345.019 0c-11.705 10.427-27.363 25.813-60.891 44.044-6.519 3.544-13.95 7.26-22.139 10.837 9.837-15.98 15.521-34.779 15.521-54.881s-5.683-38.901-15.521-54.881c8.189 3.577 15.621 7.292 22.139 10.837 32.257 17.54 47.835 32.414 60.891 44.044z"/><path d="m256.013 300.963c24.813 0 45-20.187 45-45s-20.187-45-45-45-45 20.187-45 45 20.187 45 45 45zm0-60c8.271 0 15 6.729 15 15s-6.729 15-15 15-15-6.729-15-15 6.729-15 15-15z"/><path d="m241.013 57.427v63.536h30v-63.536l15 15 21.214-21.214-51.214-51.213-51.213 51.213 21.213 21.214z"/><path d="m271.013 454.6v-63.637h-30v63.637l-15-15-21.213 21.213 51.213 51.214 51.214-51.214-21.214-21.213z"/><path d="m61.013 82.176 64.394 64.394 21.213-21.213-64.394-64.394h38.787v-30h-90v90h30z"/><path d="m391.013 30.963v30h38.788l-64.394 64.394 21.213 21.213 64.393-64.394v38.787h30v-90z"/><path d="m125.407 365.357-64.394 64.393v-38.787h-30v90h90v-30h-38.787l64.394-64.393z"/><path d="m451.013 429.75-64.393-64.393-21.213 21.213 64.394 64.393h-38.788v30h90v-90h-30z"/></g></svg>